<?xml version="1.0" encoding="utf-8"?>
<!-- Generator: Adobe Illustrator 24.1.1, SVG Export Plug-In . SVG Version: 6.00 Build 0)  -->
<svg version="1.1" id="Layer_1" xmlns="http://www.w3.org/2000/svg" xmlns:xlink="http://www.w3.org/1999/xlink" x="0px" y="0px"
	 viewBox="0 0 507 71" style="enable-background:new 0 0 507 71;" xml:space="preserve">
<style type="text/css">
	.st0{fill:url(#SVGID_1_);}
	.st1{fill:none;}
	.st2{enable-background:new    ;}
	.st3{fill:#231F20;}
</style>
<g>
	
		<radialGradient id="SVGID_1_" cx="31.4974" cy="37.3046" r="26.2402" gradientTransform="matrix(1 0 0 -1 0 72)" gradientUnits="userSpaceOnUse">
		<stop  offset="8.380000e-02" style="stop-color:#FFE67C"/>
		<stop  offset="1" style="stop-color:#295F2D"/>
	</radialGradient>
	<path class="st0" d="M23.9,21.6c0-1.8,0-3.6,0-5.4c0-1.4,0.3-2.8,0.9-4c0.3-0.5,0.7-1,1.1-1.5c0.7-0.9,1.5-1.5,2.5-1.9
		c1.2-0.6,2.6-0.8,3.9-0.7c1.4,0.1,2.7,0.7,3.8,1.6c0.9,0.6,1.5,1.5,2,2.4c0.4,0.8,0.7,1.6,0.8,2.5c0.2,1.8,0.1,3.6,0.1,5.4
		c0,1.5,0,3-0.1,4.5c0,0.8-0.1,1.5-0.2,2.3c0,0.3,0.1,0.3,0.3,0.3c1.5,0,3,0,4.5,0c1.8,0,3.7,0,5.6,0c1.1,0,2.1,0.1,3.1,0.5
		c0.9,0.4,1.8,0.8,2.5,1.5c1.2,1.1,2.1,2.5,2.4,4.2c0.4,2,0.1,4-1,5.8c-0.7,1.1-1.6,2.1-2.8,2.8c-0.9,0.5-1.8,0.9-2.8,0.9
		c-2.1,0-4.1,0-6.2,0c-0.8,0-1.7,0-2.5,0c-0.9,0-1.7-0.1-2.6-0.1c-0.3,0-0.2,0.1-0.2,0.2c0,0.7,0,1.5,0,2.2c0,2.7,0,5.4,0,8.1
		c0,1.4-0.3,2.7-0.9,3.9c-0.3,0.5-0.6,1-1,1.4c-0.6,0.9-1.6,1.4-2.5,2c-1,0.6-2.1,0.8-3.3,0.8c-1,0-2.1-0.1-3-0.6
		c-1.7-0.8-3-2-3.8-3.8c-0.5-1.1-0.8-2.3-0.8-3.5c0-3.1,0-6.3,0.1-9.4c0-0.3,0.1-0.7,0.1-1c0-0.2,0-0.2-0.2-0.2c-2.1,0-4.1,0-6.2,0
		c-1.6,0-3.1,0-4.7,0c-1.5,0-2.9-0.5-4.1-1.4c-0.7-0.5-1.4-1.2-1.9-2c-0.6-1-1-2.1-1.2-3.3c-0.3-1.8,0-3.4,0.9-5
		c0.7-1.4,1.8-2.4,3.2-3.2c1.5-0.8,3.1-0.9,4.8-0.8c0.7,0,1.4,0,2.1,0c1,0,2.1,0,3.1,0c1,0,2,0,3.1,0.1c0.2,0,0.4,0,0.7,0.1
		c0.3,0.1,0.4,0,0.4-0.3C23.9,25.2,23.9,23.3,23.9,21.6C23.9,21.6,23.9,21.6,23.9,21.6z M29.5,32.2c0.1-0.1,0.2-0.1,0.3-0.2
		c0.8-0.6,1.7-1,2.8-1.1c0.3,0,0.6,0,1-0.1c0.9-0.2,1.7-0.5,2.3-1.3c0.4-0.6,0.8-1.1,1-1.8c0.4-1.3,0.5-2.6,0.5-3.9
		c0-2.6,0-5.3,0-7.9c0-1.6-0.5-3-1.7-4.2c-1-1-2.2-1.7-3.7-1.8c-1-0.1-2,0.1-2.9,0.6c-0.9,0.5-1.8,1.1-2.4,2c-0.6,1-1,2-1,3.1
		c-0.1,4,0,7.9-0.1,11.9c0,0.4,0.1,0.5,0.5,0.7c0.8,0.4,1.6,0.9,2.2,1.6C28.9,30.5,29.3,31.3,29.5,32.2z M33.8,32.8
		c0.1,0.1,0.2,0.2,0.2,0.3c0.8,1.1,1.1,2.4,1.2,3.8c0,1.1,0.6,2,1.5,2.7c1.2,1,2.7,1.3,4.2,1.4c3,0.1,6,0.1,9,0.1
		c0.8,0,1.5-0.2,2.2-0.5c0.7-0.3,1.4-0.8,1.8-1.4c0.3-0.5,0.8-0.9,1-1.5c0.6-1.2,0.7-2.4,0.5-3.7c-0.1-0.4-0.1-0.8-0.3-1.1
		c-0.2-0.4-0.4-0.7-0.6-1C54,30.7,53,30,52,29.5C51.1,29,50.1,29,49.1,29c-3.4,0-6.8,0-10.2,0c-0.6,0-0.6,0-0.9,0.6
		c-0.7,1.3-1.6,2.4-3.1,2.9C34.6,32.6,34.2,32.7,33.8,32.8z M33.4,37.1c-0.2,0.2-0.3,0.3-0.4,0.4c-0.6,0.5-1.3,0.8-2.1,0.9
		c-0.5,0.1-1,0.1-1.5,0.1c-1.2,0.2-2,0.9-2.6,1.9c-0.7,1.2-1,2.6-1,4c0,1.6,0,3.1,0,4.7c0,1.7,0,3.4,0,5.1c0,1,0.5,1.8,1,2.6
		c0.5,0.8,1.2,1.4,2,1.8c1.1,0.6,2.4,0.8,3.7,0.6c0.8-0.1,1.6-0.4,2.3-0.9c0.6-0.4,1.2-0.9,1.6-1.5c0.8-1.2,1.1-2.5,1.1-3.8
		c0-3.5,0-7.1,0-10.6c0-0.3-0.1-0.4-0.4-0.5c-0.5-0.3-1-0.5-1.4-0.8c-0.5-0.4-0.9-0.8-1.3-1.3C33.8,39,33.5,38.1,33.4,37.1z
		 M28.9,36.6c-0.1-0.1-0.2-0.2-0.2-0.3c-0.6-0.9-0.8-1.8-0.8-2.9c0-0.7-0.3-1.4-0.6-2c-0.6-0.9-1.5-1.4-2.5-1.8
		c-0.9-0.4-1.8-0.5-2.8-0.5c-1.3,0-2.6-0.1-3.9-0.1c-1.5,0-3,0-4.5,0c-1.1,0-2.2,0.2-3.2,0.8c-0.8,0.5-1.5,1.1-2,2
		c-0.8,1.4-1.1,2.9-0.8,4.5c0.3,1.3,1,2.4,1.9,3.3c0.4,0.4,1,0.8,1.6,1c0.6,0.2,1.3,0.4,1.9,0.4c3.8,0,7.6,0,11.3,0
		c0.1,0,0.2-0.1,0.3-0.2c0.3-0.8,0.7-1.5,1.2-2.2c0.5-0.5,1-1,1.6-1.4C27.9,37,28.4,36.8,28.9,36.6z M31.7,33.1
		c-0.1,0-0.1,0-0.2,0.1c-0.7,0.2-1.2,0.7-1.7,1.1c-0.1,0-0.1,0.2,0,0.3c0.3,0.6,0.6,1.3,1.1,1.8c0.1,0.1,0.2,0.1,0.3,0
		c0.6-0.3,1.3-0.6,1.6-1.3c0.1-0.1,0.1-0.2,0-0.3c-0.3-0.5-0.5-0.9-0.8-1.3C32,33.3,31.8,33.2,31.7,33.1z"/>
	<path class="st1" d="M33.4,37.1c0.1,1,0.4,2,0.9,2.8c0.3,0.5,0.8,0.9,1.3,1.3c0.4,0.3,0.9,0.6,1.4,0.8c0.2,0.1,0.4,0.2,0.4,0.5
		c0,3.5,0,7.1,0,10.6c0,1.4-0.3,2.7-1.1,3.8c-0.4,0.6-1,1.1-1.6,1.5c-0.7,0.5-1.4,0.8-2.3,0.9c-1.3,0.2-2.5,0-3.7-0.6
		c-0.8-0.5-1.5-1-2-1.8c-0.5-0.8-1-1.7-1-2.6c-0.1-1.7,0-3.4,0-5.1c0-1.6,0-3.1,0-4.7c0-1.4,0.3-2.8,1-4c0.6-1,1.4-1.7,2.6-1.9
		c0.5-0.1,1-0.1,1.5-0.1c0.8-0.1,1.5-0.5,2.1-0.9C33.1,37.4,33.2,37.3,33.4,37.1z"/>
</g>
<g class="st2">
	<path class="st3" d="M109.9,27.9l-14.4,29h-7.1l-14.3-29v33.4H62.3V8.2h16L92,37.4l13.8-29.2h16v53.1h-11.9V27.9z"/>
	<path class="st3" d="M172.7,61.4l-4.9-11.5h-22.3l-4.9,11.5h-12.6l22.9-53.1h11.5l22.9,53.1H172.7z M156.6,24l-6.7,15.4h13.3
		L156.6,24z"/>
	<path class="st3" d="M228.6,8.2h11.9v53.1h-11.9l-25.3-33.3v33.3h-11.9V8.2h11.1l26.1,34.2V8.2z"/>
	<path class="st3" d="M253.5,8.2h11.9v53.1h-11.9V8.2z"/>
	<path class="st3" d="M312.9,34.3h11.9v18.8C319.6,59,312.3,62,303,62c-7.8,0-14.3-2.6-19.6-7.7c-5.3-5.2-7.9-11.7-7.9-19.6
		c0-7.9,2.7-14.4,8.1-19.7C288.9,9.7,295.4,7,303,7c7.6,0,14.2,2.5,19.9,7.5l-6.2,8.9c-2.4-2.1-4.6-3.5-6.6-4.3
		c-2-0.8-4.2-1.2-6.5-1.2c-4.5,0-8.3,1.5-11.4,4.6c-3.1,3.1-4.6,7.1-4.6,12.1c0,5,1.5,9,4.4,12c3,3,6.5,4.5,10.6,4.5
		s7.5-0.8,10.3-2.4V34.3z"/>
	<path class="st3" d="M376,15.2c5.1,4.6,7.6,11.1,7.6,19.3c0,8.3-2.5,14.8-7.4,19.6c-4.9,4.8-12.5,7.2-22.6,7.2h-18.2V8.2h18.8
		C363.6,8.2,370.9,10.6,376,15.2z M367.3,46.8c2.9-2.7,4.4-6.7,4.4-11.9c0-5.2-1.5-9.2-4.4-12c-2.9-2.8-7.4-4.2-13.4-4.2h-6.6v32.3
		h7.5C360.2,50.9,364.4,49.5,367.3,46.8z"/>
	<path class="st3" d="M426.8,8.2h11.9v53.1h-11.9V40.5h-21.1v20.9h-11.9V8.2h11.9v22.2h21.1V8.2z"/>
	<path class="st3" d="M489.6,61.4l-4.9-11.5h-22.3l-4.9,11.5h-12.6l22.9-53.1h11.5l22.9,53.1H489.6z M473.5,24l-6.7,15.4h13.3
		L473.5,24z"/>
</g>
</svg>
